Coordinates
version=1
nRows=54
nColumns=12
inDegrees=yes

Units are S.I. units (second, meters, Newtons, ...)
Angles are in degrees

endheader
time	SC_y	SC_z	SC_x	AC_y	AC_z	AC_x	GH_y	GH_z	GH_yy	EL_x	PS_y
       0.0              -12.73           38.8          81.06          56.56        -0.5196          17.77          171.4          87.16          3.668          103.8          32.11
   0.02056              -12.73           38.8          81.06          56.56        -0.5218          17.77          171.4          87.15           3.66          103.8          32.11
   0.04113              -12.74           38.8          81.06          56.56        -0.5243          17.76          171.3          87.14          3.651          103.8          32.11
   0.06169              -12.74           38.8          81.05          56.56        -0.5268          17.75          171.3          87.13          3.642          103.8          32.11
   0.08225              -12.75          38.79          81.05          56.55        -0.5295          17.75          171.2          87.12          3.633          103.8          32.11
    0.1028              -12.75          38.79          81.05          56.55        -0.5324          17.74          171.2          87.11          3.622          103.8          32.11
    0.1234              -12.76          38.79          81.05          56.55        -0.5355          17.73          171.1           87.1          3.611          103.8          32.11
    0.1439              -12.76          38.78          81.05          56.55        -0.5388          17.73          171.0          87.08            3.6          103.7          32.12
    0.1645              -12.77          38.78          81.05          56.55        -0.5424          17.72          171.0          87.07          3.587          103.7          32.12
    0.1851              -12.78          38.78          81.05          56.55        -0.5462          17.71          170.9          87.05          3.574          103.7          32.12
    0.2056              -12.79          38.77          81.05          56.55        -0.5503           17.7          170.8          87.04          3.559          103.7          32.12
    0.2262              -12.79          38.77          81.05          56.54        -0.5547          17.69          170.7          87.02          3.544          103.7          32.12
    0.2468               -12.8          38.76          81.05          56.54        -0.5594          17.68          170.6           87.0          3.527          103.7          32.13
    0.2673              -12.81          38.76          81.05          56.54        -0.5646          17.67          170.5          86.98          3.509          103.6          32.13
    0.2879              -12.82          38.75          81.05          56.54        -0.5701          17.65          170.4          86.96          3.489          103.6          32.13
    0.3085              -12.83          38.74          81.05          56.54        -0.5761          17.64          170.3          86.93          3.468          103.6          32.13
     0.329              -12.85          38.74          81.04          56.53        -0.5826          17.62          170.2           86.9          3.445          103.6          32.14
    0.3496              -12.86          38.73          81.04          56.53        -0.5898          17.61          170.0          86.88           3.42          103.5          32.14
    0.3701              -12.87          38.72          81.04          56.53        -0.5975          17.59          169.8          86.84          3.392          103.5          32.14
    0.3907              -12.89          38.71          81.04          56.53         -0.606          17.57          169.7          86.81          3.362          103.5          32.15
    0.4113              -12.91           38.7          81.04          56.52        -0.6154          17.55          169.5          86.77          3.329          103.4          32.15
    0.4318              -12.93          38.69          81.04          56.52        -0.6257          17.52          169.3          86.73          3.293          103.4          32.16
    0.4524              -12.95          38.68          81.04          56.51         -0.637           17.5          169.0          86.69          3.252          103.3          32.16
     0.473              -12.97          38.66          81.03          56.51        -0.6496          17.47          168.8          86.63          3.208          103.3          32.17
    0.4935               -13.0          38.65          81.03           56.5        -0.6636          17.43          168.5          86.58          3.158          103.2          32.18
    0.5141              -13.02          38.63          81.03           56.5        -0.6792           17.4          168.2          86.51          3.103          103.1          32.18
    0.5347              -13.06          38.61          81.02          56.49        -0.6967          17.36          167.8          86.44          3.041          103.1          32.19
    0.5552              -13.09          38.59          81.02          56.48        -0.7164          17.31          167.4          86.36          2.972          103.0           32.2
    0.5758              -13.14          38.57          81.02          56.48        -0.7386          17.26          167.0          86.27          2.893          102.9          32.21
    0.5963              -13.18          38.54          81.01          56.47        -0.7639           17.2          166.4          86.17          2.804          102.8          32.22
    0.6169              -13.24          38.51          81.01          56.46        -0.7927          17.13          165.9          86.06          2.702          102.7          32.24
    0.6375               -13.3          38.48           81.0          56.44        -0.8257          17.06          165.2          85.92          2.585          102.5          32.25
     0.658              -13.37          38.43          80.99          56.43        -0.8639          16.97          164.4          85.77           2.45          102.4          32.27
    0.6786              -13.45          38.39          80.99          56.41        -0.9083          16.86          163.5          85.59          2.293          102.2          32.29
    0.6992              -13.55          38.33          80.98          56.39        -0.9602          16.74          162.4          85.38          2.109          101.9          32.32
    0.7197              -13.66          38.27          80.97          56.37         -1.021           16.6          161.2          85.13          1.893          101.7          32.35
    0.7403               -13.8          38.19          80.95          56.34         -1.094          16.43          159.7          84.84          1.636          101.4          32.38
    0.7608              -13.96          38.09          80.94          56.31         -1.181          16.22          157.9          84.49          1.327          101.0          32.42
    0.7814              -14.15          37.98          80.92          56.27         -1.287          15.98          155.8          84.06         0.9542          100.6          32.47
     0.802              -14.39          37.84           80.9          56.22         -1.415          15.68          153.1          83.54         0.4985          100.0          32.54
    0.8225              -14.69          37.67          80.87          56.16         -1.574          15.31          149.9           82.9        -0.0639          99.33          32.61
    0.8431              -15.06          37.46          80.83          56.09         -1.773          14.84          145.8           82.1        -0.7652          98.49          32.71
    0.8637              -15.52          37.19          80.79           56.0         -2.022          14.26          140.7          81.09         -1.649          97.43          32.83
    0.8842              -16.11          36.85          80.73          55.88          -2.34          13.52          134.2          79.81         -2.772          96.08          32.98
    0.9048              -16.86          36.41          80.66          55.73         -2.746          12.57          125.9          78.17         -4.209          94.35          33.17
    0.9254              -17.83          35.85          80.57          55.53         -3.267          11.35          115.3          76.06         -6.054          92.13          33.42
    0.9459              -19.07          35.14          80.45          55.29         -3.933          9.791          101.6          73.37          -8.41          89.29          33.74
    0.9665              -20.62          34.24           80.3          54.97         -4.771          7.833          84.52          69.99         -11.37          85.73          34.14
     0.987              -22.52          33.14          80.12          54.59         -5.791          5.448          63.65          65.87         -14.98          81.38          34.63
     1.008              -24.72          31.87          79.91          54.15         -6.974          2.683          39.46          61.09         -19.17          76.35          35.19
     1.028               -27.1          30.49          79.69          53.68         -8.255        -0.3109          13.28          55.92          -23.7          70.89          35.81
     1.049              -29.47          29.12          79.46           53.2         -9.536         -3.305         -12.91          50.75         -28.23          65.44          36.42
     1.069              -31.67          27.85          79.25          52.76         -10.72          -6.07          -37.1          45.97         -32.42          60.41          36.98
      1.09              -33.57          26.75          79.07          52.38         -11.74         -8.455         -57.97          41.85         -36.03          56.06          37.47
